<svg width="20" height="18" viewBox="0 0 20 18" fill="none" xmlns="http://www.w3.org/2000/svg">
<path d="M7 15.9282C8.21615 16.6303 9.59571 17 11 17C12.4043 17 13.7838 16.6303 15 15.9282C16.2162 15.2261 17.2261 14.2162 17.9282 13C18.6303 11.7838 19 10.4043 19 9C19 7.59571 18.6303 6.21615 17.9282 5C17.2261 3.78385 16.2162 2.77394 15 2.0718C13.7838 1.36965 12.4043 1 11 1C9.59571 1 8.21615 1.36965 7 2.0718" stroke="white"/>
<path d="M1 9L0.609566 8.68765L0.359688 9L0.609566 9.31235L1 9ZM10 9.5C10.2761 9.5 10.5 9.27614 10.5 9C10.5 8.72386 10.2761 8.5 10 8.5V9.5ZM4.60957 3.68765L0.609566 8.68765L1.39043 9.31235L5.39043 4.31235L4.60957 3.68765ZM0.609566 9.31235L4.60957 14.3123L5.39043 13.6877L1.39043 8.68765L0.609566 9.31235ZM1 9.5H10V8.5H1V9.5Z" fill="white"/>
</svg>
