<svg width="28" height="28" viewBox="0 0 28 28" fill="none" xmlns="http://www.w3.org/2000/svg">
<g clip-path="url(#clip0_291_22)">
<path d="M9.3337 14C9.3337 13.077 9.60741 12.1748 10.1202 11.4073C10.633 10.6399 11.3619 10.0418 12.2146 9.68856C13.0674 9.33535 14.0057 9.24294 14.911 9.423C15.8163 9.60307 16.6478 10.0475 17.3005 10.7002C17.9532 11.3528 18.3977 12.1843 18.5777 13.0896C18.7578 13.9948 18.6654 14.9331 18.3122 15.7859C17.9589 16.6386 17.3608 17.3674 16.5933 17.8802C15.8259 18.393 14.9236 18.6667 14.0005 18.6667C12.7628 18.6667 11.5758 18.175 10.7006 17.2998C9.82538 16.4247 9.3337 15.2377 9.3337 14ZM6.81058 14C6.81058 15.4218 7.2322 16.8116 8.02211 17.9938C8.81203 19.176 9.93477 20.0974 11.2484 20.6416C12.562 21.1857 14.0074 21.3281 15.402 21.0508C16.7965 20.7735 18.0775 20.0889 19.0829 19.0836C20.0884 18.0783 20.7731 16.7974 21.0506 15.403C21.3281 14.0085 21.1859 12.5631 20.6419 11.2495C20.0979 9.93591 19.1765 8.8131 17.9944 8.02308C16.8123 7.23306 15.4224 6.8113 14.0005 6.81114C13.0564 6.8111 12.1216 6.99702 11.2493 7.35828C10.3771 7.71955 9.58456 8.24907 8.91698 8.91663C8.24939 9.58418 7.71985 10.3767 7.35857 11.2489C6.9973 12.1211 6.81137 13.0559 6.8114 14H6.81058ZM19.7929 6.5262C19.7928 6.85847 19.8913 7.18331 20.0758 7.45965C20.2603 7.73598 20.5226 7.9514 20.8296 8.07865C21.1365 8.20591 21.4743 8.23929 21.8002 8.17457C22.1261 8.10985 22.4256 7.94995 22.6606 7.71507C22.8956 7.4802 23.0557 7.1809 23.1207 6.85504C23.1856 6.52917 23.1524 6.19137 23.0254 5.88434C22.8983 5.57732 22.6831 5.31487 22.4068 5.13018C22.1306 4.94549 21.8058 4.84685 21.4735 4.84675C21.0281 4.84696 20.601 5.02396 20.286 5.33885C19.971 5.65375 19.7938 6.08079 19.7935 6.5262H19.7929ZM8.34543 25.3957C7.45756 25.3856 6.57806 25.2227 5.74544 24.9142C5.13734 24.6895 4.58716 24.3317 4.1351 23.867C3.6697 23.4159 3.31176 22.866 3.08781 22.2578C2.77881 21.4253 2.61555 20.5458 2.6052 19.6579C2.53739 18.1822 2.52284 17.7388 2.52284 14.0003C2.52284 10.2617 2.53739 9.81949 2.6052 8.34263C2.61635 7.45489 2.7792 6.5756 3.08671 5.74275C3.31148 5.13467 3.6693 4.58451 4.13401 4.13247C4.58527 3.66682 5.13569 3.30887 5.74434 3.08522C6.57725 2.77638 7.45716 2.61341 8.34543 2.60345C9.82125 2.53565 10.2646 2.5211 14.0005 2.5211C17.7365 2.5211 18.1815 2.53565 19.6584 2.60345C20.5462 2.6146 21.4255 2.77744 22.2584 3.08494C22.8667 3.30929 23.417 3.66715 23.8687 4.1322C24.3338 4.58394 24.6917 5.13419 24.916 5.74247C25.2247 6.57502 25.3875 7.45451 25.3975 8.34235C25.4654 9.81922 25.4799 10.2615 25.4799 14C25.4799 17.7386 25.4664 18.1808 25.3975 19.6576C25.3868 20.5454 25.224 21.4248 24.916 22.2575C24.683 22.8613 24.3262 23.4096 23.8685 23.8671C23.4107 24.3246 22.8623 24.6812 22.2584 24.914C21.4258 25.2226 20.5463 25.3855 19.6584 25.3955C18.1826 25.4633 17.7392 25.4778 14.0005 25.4778C10.2619 25.4778 9.8196 25.4644 8.34543 25.3955V25.3957ZM8.22848 0.0848235C7.06708 0.107799 5.91801 0.327692 4.83019 0.735137C3.89589 1.08669 3.04947 1.63771 2.3499 2.3498C1.63704 3.0487 1.08581 3.89514 0.734892 4.82973C0.327529 5.91761 0.107721 7.06673 0.0848269 8.22816C0.0159222 9.72094 0 10.198 0 14C0 17.802 0.0159222 18.2791 0.0848269 19.7718C0.10783 20.9332 0.32773 22.0822 0.735166 23.17C1.08607 24.1046 1.6372 24.9511 2.3499 25.6502C3.0497 26.3619 3.89593 26.913 4.82992 27.2651C5.91778 27.6724 7.06682 27.8923 8.2282 27.9155C9.72187 27.9833 10.1982 28.0003 14.0003 28.0003C17.8024 28.0003 18.2795 27.9844 19.7723 27.9155C20.9337 27.8925 22.0828 27.6726 23.1706 27.2651C24.1009 26.9055 24.9457 26.3554 25.651 25.6502C26.3562 24.945 26.9063 24.1002 27.2659 23.17C27.6739 22.0824 27.8938 20.9333 27.9163 19.7718C27.9841 18.278 27.9986 17.802 27.9986 14C27.9986 10.198 27.9827 9.72094 27.9163 8.22816C27.8933 7.0668 27.6734 5.91777 27.2659 4.83C26.9139 3.89599 26.3629 3.04971 25.6512 2.3498C24.9524 1.63736 24.1064 1.0862 23.1723 0.734863C22.0844 0.327208 20.9352 0.107399 19.7737 0.0848235C18.2811 0.0170196 17.8038 0 14.0005 0C10.1973 0 9.72077 0.0159216 8.22738 0.0848235" fill="url(#paint0_radial_291_22)"/>
<path d="M9.3337 14C9.3337 13.077 9.60741 12.1748 10.1202 11.4073C10.633 10.6399 11.3619 10.0418 12.2146 9.68856C13.0674 9.33535 14.0057 9.24294 14.911 9.423C15.8163 9.60307 16.6478 10.0475 17.3005 10.7002C17.9532 11.3528 18.3977 12.1843 18.5777 13.0896C18.7578 13.9948 18.6654 14.9331 18.3122 15.7859C17.9589 16.6386 17.3608 17.3674 16.5933 17.8802C15.8259 18.393 14.9236 18.6667 14.0005 18.6667C12.7628 18.6667 11.5758 18.175 10.7006 17.2998C9.82538 16.4247 9.3337 15.2377 9.3337 14ZM6.81058 14C6.81058 15.4218 7.2322 16.8116 8.02211 17.9938C8.81203 19.176 9.93477 20.0974 11.2484 20.6416C12.562 21.1857 14.0074 21.3281 15.402 21.0508C16.7965 20.7735 18.0775 20.0889 19.0829 19.0836C20.0884 18.0783 20.7731 16.7974 21.0506 15.403C21.3281 14.0085 21.1859 12.5631 20.6419 11.2495C20.0979 9.93591 19.1765 8.8131 17.9944 8.02308C16.8123 7.23306 15.4224 6.8113 14.0005 6.81114C13.0564 6.8111 12.1216 6.99702 11.2493 7.35828C10.3771 7.71955 9.58456 8.24907 8.91698 8.91663C8.24939 9.58418 7.71985 10.3767 7.35857 11.2489C6.9973 12.1211 6.81137 13.0559 6.8114 14H6.81058ZM19.7929 6.5262C19.7928 6.85847 19.8913 7.18331 20.0758 7.45965C20.2603 7.73598 20.5226 7.9514 20.8296 8.07865C21.1365 8.20591 21.4743 8.23929 21.8002 8.17457C22.1261 8.10985 22.4256 7.94995 22.6606 7.71507C22.8956 7.4802 23.0557 7.1809 23.1207 6.85504C23.1856 6.52917 23.1524 6.19137 23.0254 5.88434C22.8983 5.57732 22.6831 5.31487 22.4068 5.13018C22.1306 4.94549 21.8058 4.84685 21.4735 4.84675C21.0281 4.84696 20.601 5.02396 20.286 5.33885C19.971 5.65375 19.7938 6.08079 19.7935 6.5262H19.7929ZM8.34543 25.3957C7.45756 25.3856 6.57806 25.2227 5.74544 24.9142C5.13734 24.6895 4.58716 24.3317 4.1351 23.867C3.6697 23.4159 3.31176 22.866 3.08781 22.2578C2.77881 21.4253 2.61555 20.5458 2.6052 19.6579C2.53739 18.1822 2.52284 17.7388 2.52284 14.0003C2.52284 10.2617 2.53739 9.81949 2.6052 8.34263C2.61635 7.45489 2.7792 6.5756 3.08671 5.74275C3.31148 5.13467 3.6693 4.58451 4.13401 4.13247C4.58527 3.66682 5.13569 3.30887 5.74434 3.08522C6.57725 2.77638 7.45716 2.61341 8.34543 2.60345C9.82125 2.53565 10.2646 2.5211 14.0005 2.5211C17.7365 2.5211 18.1815 2.53565 19.6584 2.60345C20.5462 2.6146 21.4255 2.77744 22.2584 3.08494C22.8667 3.30929 23.417 3.66715 23.8687 4.1322C24.3338 4.58394 24.6917 5.13419 24.916 5.74247C25.2247 6.57502 25.3875 7.45451 25.3975 8.34235C25.4654 9.81922 25.4799 10.2615 25.4799 14C25.4799 17.7386 25.4664 18.1808 25.3975 19.6576C25.3868 20.5454 25.224 21.4248 24.916 22.2575C24.683 22.8613 24.3262 23.4096 23.8685 23.8671C23.4107 24.3246 22.8623 24.6812 22.2584 24.914C21.4258 25.2226 20.5463 25.3855 19.6584 25.3955C18.1826 25.4633 17.7392 25.4778 14.0005 25.4778C10.2619 25.4778 9.8196 25.4644 8.34543 25.3955V25.3957ZM8.22848 0.0848235C7.06708 0.107799 5.91801 0.327692 4.83019 0.735137C3.89589 1.08669 3.04947 1.63771 2.3499 2.3498C1.63704 3.0487 1.08581 3.89514 0.734892 4.82973C0.327529 5.91761 0.107721 7.06673 0.0848269 8.22816C0.0159222 9.72094 0 10.198 0 14C0 17.802 0.0159222 18.2791 0.0848269 19.7718C0.10783 20.9332 0.32773 22.0822 0.735166 23.17C1.08607 24.1046 1.6372 24.9511 2.3499 25.6502C3.0497 26.3619 3.89593 26.913 4.82992 27.2651C5.91778 27.6724 7.06682 27.8923 8.2282 27.9155C9.72187 27.9833 10.1982 28.0003 14.0003 28.0003C17.8024 28.0003 18.2795 27.9844 19.7723 27.9155C20.9337 27.8925 22.0828 27.6726 23.1706 27.2651C24.1009 26.9055 24.9457 26.3554 25.651 25.6502C26.3562 24.945 26.9063 24.1002 27.2659 23.17C27.6739 22.0824 27.8938 20.9333 27.9163 19.7718C27.9841 18.278 27.9986 17.802 27.9986 14C27.9986 10.198 27.9827 9.72094 27.9163 8.22816C27.8933 7.0668 27.6734 5.91777 27.2659 4.83C26.9139 3.89599 26.3629 3.04971 25.6512 2.3498C24.9524 1.63736 24.1064 1.0862 23.1723 0.734863C22.0844 0.327208 20.9352 0.107399 19.7737 0.0848235C18.2811 0.0170196 17.8038 0 14.0005 0C10.1973 0 9.72077 0.0159216 8.22738 0.0848235" fill="url(#paint1_radial_291_22)"/>
</g>
<defs>
<radialGradient id="paint0_radial_291_22" cx="0" cy="0" r="1" gradientUnits="userSpaceOnUse" gradientTransform="translate(3.72003 28.1323) scale(36.5516 36.5502)">
<stop offset="0.09" stop-color="#FA8F21"/>
<stop offset="0.78" stop-color="#D82D7E"/>
</radialGradient>
<radialGradient id="paint1_radial_291_22" cx="0" cy="0" r="1" gradientUnits="userSpaceOnUse" gradientTransform="translate(16.9816 29.3865) scale(28.8076 28.8065)">
<stop offset="0.64" stop-color="#8C3AAA" stop-opacity="0"/>
<stop offset="1" stop-color="#8C3AAA"/>
</radialGradient>
<clipPath id="clip0_291_22">
<rect width="28" height="28" fill="white"/>
</clipPath>
</defs>
</svg>
