<svg width="28" height="28" viewBox="0 0 28 28" fill="none" xmlns="http://www.w3.org/2000/svg">
<path fill-rule="evenodd" clip-rule="evenodd" d="M9.70667 0H18.2933C26.1333 0 28 1.86667 28 9.70667V18.2933C28 26.1333 26.1333 28 18.2933 28H9.70667C1.86667 28 0 26.1333 0 18.2933V9.70667C0 1.86667 1.86667 0 9.70667 0Z" fill="#2787F5"/>
<path fill-rule="evenodd" clip-rule="evenodd" d="M22.9299 9.64633C23.0596 9.21372 22.9299 8.89584 22.3125 8.89584H20.2708C19.7517 8.89584 19.5124 9.17044 19.3826 9.47325C19.3826 9.47325 18.3443 12.004 16.8735 13.6478C16.3976 14.1237 16.1813 14.2751 15.9217 14.2751C15.792 14.2751 15.6041 14.1237 15.6041 13.6911V9.64633C15.6041 9.1272 15.4535 8.89584 15.0208 8.89584H11.8125C11.4881 8.89584 11.293 9.13678 11.293 9.36512C11.293 9.85725 12.0283 9.97074 12.1041 11.3551V14.3617C12.1041 15.0208 11.9851 15.1403 11.7255 15.1403C11.0334 15.1403 9.34978 12.5983 8.35123 9.68957C8.15554 9.12421 7.95927 8.89584 7.43747 8.89584H5.39581C4.81247 8.89584 4.6958 9.17044 4.6958 9.47325C4.6958 10.014 5.38797 12.6961 7.91866 16.2435C9.60577 18.666 11.9828 19.9792 14.1458 19.9792C15.4436 19.9792 15.6041 19.6875 15.6041 19.1851V17.3542C15.6041 16.7708 15.7271 16.6544 16.1381 16.6544C16.4409 16.6544 16.96 16.8058 18.1713 17.9738C19.5556 19.3582 19.7838 19.9792 20.5625 19.9792H22.6041C23.1875 19.9792 23.4791 19.6875 23.3109 19.1119C23.1268 18.5382 22.4658 17.7059 21.5888 16.7193C21.1129 16.1569 20.3992 15.5513 20.1828 15.2484C19.88 14.8591 19.9666 14.6861 20.1828 14.34C20.1828 14.34 22.6703 10.836 22.9299 9.64633Z" fill="white"/>
</svg>
