<svg width="28" height="28" viewBox="0 0 28 28" fill="none" xmlns="http://www.w3.org/2000/svg">
<path d="M14 27C21.1797 27 27 21.1797 27 14C27 6.8203 21.1797 1 14 1C6.8203 1 1 6.8203 1 14C1 21.1797 6.8203 27 14 27Z" stroke="black" stroke-width="2"/>
<path d="M0.700195 11.9L5.23354 11.1444C7.12863 10.8286 8.7716 12.4716 8.45575 14.3667L8.26743 15.4966C7.93027 17.5196 8.95194 19.5259 10.7863 20.4431C12.2551 21.1775 13.0168 22.8336 12.6185 24.4266L11.9002 27.3" stroke="black" stroke-width="2"/>
<path d="M24.5002 5.6L22.4468 7.14C21.9621 7.50349 21.3727 7.7 20.7668 7.7H16.0652C15.2287 7.7 14.4639 8.17265 14.0898 8.92088C13.6281 9.84425 13.8676 10.9643 14.6666 11.618L17.4666 13.9089C19.67 15.7118 20.8103 18.508 20.496 21.3377L20.468 21.5888C20.3566 22.5917 20.1102 23.5749 19.7356 24.5116L18.9002 26.6" stroke="black" stroke-width="2"/>
</svg>
